<svg width="62" height="63" viewBox="0 0 62 63" fill="none" xmlns="http://www.w3.org/2000/svg">
<g id="ecology-planet-svgrepo-com 1" clip-path="url(#clip0_1_451)">
<g id="Group">
<g id="Group_2">
<g id="Group_3">
<path id="Vector" d="M61.869 48.5382C61.8045 48.422 61.7271 48.3187 61.6237 48.2025C61.0298 47.6086 60.4875 46.976 59.984 46.3176C58.7703 44.7812 57.8924 43.8645 55.1941 44.6391L43.8971 47.8669C43.8971 47.7765 43.9229 47.6862 43.9229 47.5958C43.9229 45.3493 42.1541 43.077 38.7585 43.077L34.9756 43.0899C32.897 43.1029 30.9732 43.1029 28.9333 43.0899C28.8301 42.9867 28.7267 42.8705 28.6105 42.7543C27.3581 41.4244 25.2537 39.2038 19.7794 39.2038H12.9108V37.9127C12.9108 37.2026 12.3298 36.6216 11.6197 36.6216H1.29113C0.58099 36.6215 0 37.2025 0 37.9125V57.2788C0 57.9889 0.58099 58.5699 1.29113 58.5699H11.6198C12.3299 58.5699 12.9109 57.9889 12.9109 57.2788V56.5946C15.506 57.4725 17.7783 58.273 19.7408 58.9573C26.1188 61.2038 29.7597 62.4562 33.1811 62.4562C37.5449 62.4562 41.5731 60.4033 50.5204 55.7684C53.4124 54.2707 57.0017 52.4116 61.2881 50.2683C61.9206 49.9455 62.1789 49.1708 61.869 48.5382ZM10.3287 55.9878H2.58214V39.2036H10.3287V55.9878ZM49.3197 53.483C34.2139 61.307 34.2139 61.307 20.6058 56.5171C18.4238 55.7425 15.8804 54.8516 12.9109 53.8575V41.7859H19.7537C24.0917 41.7859 25.5893 43.3609 26.6868 44.5229C26.9579 44.8328 27.2549 45.1169 27.5647 45.375C27.7842 45.5558 28.0682 45.6462 28.3523 45.6591C30.5859 45.6849 32.6516 45.6721 34.9111 45.6591L38.7199 45.6462C40.5016 45.6462 41.302 46.6145 41.302 47.5828C41.302 48.5511 40.5016 49.5194 38.7199 49.5194H24.5695C23.924 49.5194 23.343 49.9842 23.2526 50.6169C23.1364 51.4173 23.7561 52.1017 24.5307 52.1017H38.7327C40.3207 52.1017 41.5472 51.5852 42.3993 50.8235C42.58 50.8623 42.7737 50.8493 42.9545 50.7977L55.8655 47.1181C57.0275 46.7825 57.0275 46.7825 57.9183 47.9186C58.099 48.151 58.3186 48.4221 58.5638 48.732C54.9617 50.5652 51.8631 52.1661 49.3197 53.483Z" fill="#C9AB79"/>
<path id="Vector_2" d="M18.9919 34.1942C19.6117 33.8326 19.8183 33.0451 19.4567 32.4254C14.0471 23.1425 17.1457 11.1741 26.3641 5.72564C29.7983 3.68576 33.7878 2.78196 37.7644 3.1176C35.4663 4.06014 33.3102 5.50608 33.5039 7.57186C33.633 8.88877 34.2398 9.9216 35.2339 10.4768C36.0602 10.9416 37.0801 11.0061 38.1259 10.6963C38.1776 11.5871 38.1646 12.478 38.0614 13.3559C37.6998 13.4204 37.3125 13.5108 36.9252 13.6012C35.634 13.8981 34.0719 14.2597 33.2456 13.7691C33.0906 13.4205 32.8582 13.1106 32.5613 12.8653C31.5543 12.0389 29.8758 11.8712 27.4357 12.3618C22.0131 13.4333 21.9614 20.4052 21.9614 20.6893C21.9614 22.3548 22.7877 25.5179 25.9121 25.5179C26.3899 25.5179 26.8675 25.4921 27.3452 25.4662C28.2878 25.4146 29.3593 25.35 29.6692 25.6469C29.8499 25.8148 29.9403 26.2667 29.9403 26.8734C29.9403 27.222 30.0823 27.5449 30.3147 27.7901C30.9732 28.4485 31.6446 29.3264 31.7091 29.533C31.7091 29.6622 31.5284 30.0366 31.3992 30.2819C31.141 30.7984 30.8182 31.4439 30.8182 32.1928C30.8182 33.2386 32.6903 37.8994 34.769 37.8994C38.5648 37.8994 40.9662 36.1048 41.3406 33.0578C42.1927 32.606 42.9803 32.0378 43.6645 31.3407C44.2197 30.7854 44.4909 30.1916 44.4779 29.559C44.4521 28.681 43.8711 28.1258 43.4321 27.7515C43.6258 27.5449 43.8452 27.3125 44.0261 27.1188C45.6786 25.4016 48.7644 22.2127 46.3242 19.7854C45.9369 19.398 45.3301 19.2948 44.8395 19.54C44.5296 19.682 44.1939 19.7724 43.8454 19.7982C43.5097 18.5975 43.1611 17.7583 42.8125 17.1773C43.7679 16.7255 45.3172 16.2477 46.8795 16.6351C47.1764 16.7125 47.4862 16.6738 47.7703 16.5318C50.0555 15.3956 51.3854 13.2395 52.1084 11.5224C52.3537 11.8967 52.6119 12.2583 52.8443 12.6456C58.2539 21.9285 55.1553 33.8969 45.9369 39.3454C45.3172 39.7069 45.1235 40.4944 45.4851 41.1141C45.8466 41.7338 46.6341 41.9275 47.2538 41.566C57.6859 35.4075 61.1976 21.851 55.0778 11.3415C54.3936 10.1666 53.593 9.05629 52.7022 8.03629L52.6892 8.01051C45.7819 0.044526 34.1363 -1.86633 25.0471 3.50457C14.615 9.66306 11.1033 23.2195 17.2231 33.729C17.5846 34.3363 18.3722 34.5428 18.9919 34.1942ZM42.9028 4.2538C45.6786 5.31253 48.1962 6.99087 50.2233 9.1599C49.8877 10.3219 48.9709 12.8266 46.9955 14.0402C43.8969 13.5109 40.7983 15.0473 39.9332 16.106C39.3522 16.8161 39.5976 17.4874 39.6879 17.6683C39.8558 18.0169 40.1656 18.288 40.54 18.3912C40.8111 18.8173 41.2501 19.9663 41.5083 21.0121C41.56 21.2445 41.689 21.4511 41.8569 21.6189C42.6574 22.4065 43.7161 22.471 44.5553 22.329C44.2067 23.2456 42.864 24.64 42.1926 25.3244C41.1597 26.3959 40.5916 26.9769 40.5916 27.7775C40.5916 28.6941 41.2371 29.2623 41.6631 29.6367L41.7019 29.6624C41.1209 30.2176 40.4366 30.6695 39.7007 30.9664C39.1714 31.1471 38.8228 31.6378 38.8099 32.1929C38.8099 32.9418 38.8099 35.214 35.0528 35.3173C34.4976 34.7492 33.4648 32.748 33.4002 32.1929C33.4002 32.0637 33.581 31.6894 33.7101 31.444C33.9683 30.9275 34.2911 30.282 34.2911 29.5332C34.2911 28.4744 33.284 27.1834 32.4964 26.3441C32.419 25.2209 32.0574 24.3817 31.4249 23.7878C30.3016 22.7162 28.7136 22.8195 27.1772 22.8969C26.7512 22.9227 26.3251 22.9486 25.8991 22.9486C24.5692 22.9486 24.5305 20.7925 24.5305 20.7021C24.5305 20.6504 24.5692 15.5636 27.9389 14.9052C29.9273 14.5049 30.676 14.7502 30.8697 14.8407C30.9214 15.073 31.0504 15.2797 31.2053 15.4346C32.9483 17.1646 35.5821 16.5578 37.5058 16.1188C38.1513 15.9639 38.8227 15.809 39.223 15.809C39.8685 15.809 40.4107 15.3312 40.5012 14.6987C41.0176 11.1223 40.7335 8.9275 39.6748 8.1658C39.1196 7.76552 38.4224 7.72679 37.7511 8.06255C37.2347 8.32073 36.757 8.38537 36.4859 8.21748C36.176 8.0496 36.0856 7.58481 36.0728 7.32663C36.0083 6.61649 39.1585 5.05436 42.7993 4.29253C42.8383 4.2797 42.8641 4.2538 42.9028 4.2538Z" fill="#C9AB79"/>
</g>
</g>
</g>
</g>
<defs>
<clipPath id="clip0_1_451">
<rect width="62" height="62" fill="white" transform="translate(0 0.462646)"/>
</clipPath>
</defs>
</svg>
