<svg width="81" height="61" viewBox="0 0 81 61" fill="none" xmlns="http://www.w3.org/2000/svg">
<g id="people-svgrepo-com 1">
<path id="Vector" fill-rule="evenodd" clip-rule="evenodd" d="M27 32.0625C31.6624 32.0625 35.4375 28.2874 35.4375 23.625C35.4375 18.9626 31.6624 15.1875 27 15.1875C22.3376 15.1875 18.5625 18.9626 18.5625 23.625C18.5625 28.2874 22.3376 32.0625 27 32.0625ZM27 35.4375C33.5264 35.4375 38.8125 30.1514 38.8125 23.625C38.8125 17.0986 33.5264 11.8125 27 11.8125C20.4736 11.8125 15.1875 17.0986 15.1875 23.625C15.1875 30.1514 20.4736 35.4375 27 35.4375Z" fill="#C9AB79"/>
<path id="Vector_2" fill-rule="evenodd" clip-rule="evenodd" d="M9.73043 47.3928C8.68313 48.3445 8.4375 49.0769 8.4375 49.6125V55.6875H45.5625V49.6125C45.5625 49.0769 45.3168 48.3445 44.2695 47.3928C43.2015 46.4223 41.5577 45.48 39.476 44.6588C35.3092 43.0154 30.2457 42.1875 27 42.1875C23.7543 42.1875 18.6908 43.0154 14.524 44.6588C12.4423 45.48 10.7984 46.4223 9.73043 47.3928ZM27 38.8125C19.6783 38.8125 5.0625 42.4305 5.0625 49.6125V59.0625H48.9375V49.6125C48.9375 42.4305 34.3216 38.8125 27 38.8125Z" fill="#C9AB79"/>
<path id="Vector_3" fill-rule="evenodd" clip-rule="evenodd" d="M59.0625 35.4375C61.8602 35.4375 64.125 33.1727 64.125 30.375C64.125 27.5773 61.8602 25.3125 59.0625 25.3125C56.2648 25.3125 54 27.5773 54 30.375C54 33.1727 56.2648 35.4375 59.0625 35.4375ZM59.0625 38.8125C63.7242 38.8125 67.5 35.0367 67.5 30.375C67.5 25.7133 63.7242 21.9375 59.0625 21.9375C54.4008 21.9375 50.625 25.7133 50.625 30.375C50.625 35.0367 54.4008 38.8125 59.0625 38.8125Z" fill="#C9AB79"/>
<path id="Vector_4" fill-rule="evenodd" clip-rule="evenodd" d="M47.2501 55.6875H72.5626V51.1874C72.5626 50.8493 72.4294 50.3548 71.7251 49.6614C70.9913 48.939 69.8244 48.2041 68.2859 47.5467C65.1941 46.2255 61.4268 45.5625 59.0626 45.5625C56.6982 45.5625 52.931 46.2255 49.8392 47.5467C48.6831 48.0408 47.7367 48.5786 47.0263 49.1219C46.6966 48.0171 46.0364 47.0367 45.2764 46.2189C49.0208 43.5358 55.2962 42.1875 59.0626 42.1875C64.6946 42.1875 75.9376 45.2026 75.9376 51.1874V55.6875V59.0625H72.5626H47.2501V55.6875Z" fill="#C9AB79"/>
</g>
</svg>
